<mxfile host="app.diagrams.net" modified="2022-11-06T18:34:55.413Z" agent="5.0 (Macintosh; Intel Mac OS X 10_15_7) AppleWebKit/537.36 (KHTML, like Gecko) Chrome/107.0.0.0 Safari/537.36" etag="lWD1WUsccLylGQv8LTpk" version="20.5.2" type="github">
  <diagram id="Y909GpO99Tdh2IEpYgiS" name="第 1 页">
    <mxGraphModel dx="1378" dy="721" grid="0" gridSize="10" guides="1" tooltips="1" connect="1" arrows="1" fold="1" page="1" pageScale="1" pageWidth="1700" pageHeight="1100" math="0" shadow="0">
      <root>
        <mxCell id="0" />
        <mxCell id="1" parent="0" />
        <mxCell id="RMIyYDaaFXqGHEtweAsm-18" style="edgeStyle=orthogonalEdgeStyle;rounded=0;orthogonalLoop=1;jettySize=auto;html=1;exitX=0.25;exitY=1;exitDx=0;exitDy=0;" edge="1" parent="1" source="RMIyYDaaFXqGHEtweAsm-1">
          <mxGeometry relative="1" as="geometry">
            <mxPoint x="545" y="370" as="targetPoint" />
          </mxGeometry>
        </mxCell>
        <mxCell id="RMIyYDaaFXqGHEtweAsm-1" value="cdp系统" style="rounded=1;whiteSpace=wrap;html=1;" vertex="1" parent="1">
          <mxGeometry x="510" y="260" width="140" height="50" as="geometry" />
        </mxCell>
        <mxCell id="RMIyYDaaFXqGHEtweAsm-3" value="用户权限表" style="strokeWidth=2;html=1;shape=mxgraph.flowchart.annotation_1;align=left;pointerEvents=1;" vertex="1" parent="1">
          <mxGeometry x="600" y="160" width="130" height="45" as="geometry" />
        </mxCell>
        <mxCell id="RMIyYDaaFXqGHEtweAsm-7" style="edgeStyle=orthogonalEdgeStyle;rounded=0;orthogonalLoop=1;jettySize=auto;html=1;exitX=0.25;exitY=1;exitDx=0;exitDy=0;entryX=0.25;entryY=0;entryDx=0;entryDy=0;" edge="1" parent="1" source="RMIyYDaaFXqGHEtweAsm-6" target="RMIyYDaaFXqGHEtweAsm-1">
          <mxGeometry relative="1" as="geometry" />
        </mxCell>
        <mxCell id="RMIyYDaaFXqGHEtweAsm-10" style="edgeStyle=orthogonalEdgeStyle;rounded=0;orthogonalLoop=1;jettySize=auto;html=1;exitX=0.75;exitY=1;exitDx=0;exitDy=0;" edge="1" parent="1" source="RMIyYDaaFXqGHEtweAsm-6">
          <mxGeometry relative="1" as="geometry">
            <mxPoint x="615" y="160" as="targetPoint" />
          </mxGeometry>
        </mxCell>
        <mxCell id="RMIyYDaaFXqGHEtweAsm-6" value="用户验证系统" style="rounded=1;whiteSpace=wrap;html=1;" vertex="1" parent="1">
          <mxGeometry x="510" y="60" width="140" height="50" as="geometry" />
        </mxCell>
        <mxCell id="RMIyYDaaFXqGHEtweAsm-8" value="验证通过信息" style="text;html=1;align=center;verticalAlign=middle;resizable=0;points=[];autosize=1;strokeColor=none;fillColor=none;" vertex="1" parent="1">
          <mxGeometry x="460" y="155" width="100" height="30" as="geometry" />
        </mxCell>
        <mxCell id="RMIyYDaaFXqGHEtweAsm-11" value="用户登录信息" style="text;html=1;align=center;verticalAlign=middle;resizable=0;points=[];autosize=1;strokeColor=none;fillColor=none;" vertex="1" parent="1">
          <mxGeometry x="610" y="120" width="100" height="30" as="geometry" />
        </mxCell>
        <mxCell id="RMIyYDaaFXqGHEtweAsm-12" value="" style="endArrow=classic;html=1;rounded=0;entryX=0.75;entryY=0;entryDx=0;entryDy=0;" edge="1" parent="1" target="RMIyYDaaFXqGHEtweAsm-1">
          <mxGeometry width="50" height="50" relative="1" as="geometry">
            <mxPoint x="615" y="210" as="sourcePoint" />
            <mxPoint x="730" y="210" as="targetPoint" />
          </mxGeometry>
        </mxCell>
        <mxCell id="RMIyYDaaFXqGHEtweAsm-13" value="获取cdp等用户的权限" style="text;html=1;align=center;verticalAlign=middle;resizable=0;points=[];autosize=1;strokeColor=none;fillColor=none;" vertex="1" parent="1">
          <mxGeometry x="620" y="220" width="140" height="30" as="geometry" />
        </mxCell>
        <mxCell id="RMIyYDaaFXqGHEtweAsm-16" style="edgeStyle=orthogonalEdgeStyle;rounded=0;orthogonalLoop=1;jettySize=auto;html=1;exitX=1;exitY=0.5;exitDx=0;exitDy=0;entryX=0;entryY=0.5;entryDx=0;entryDy=0;entryPerimeter=0;" edge="1" parent="1" source="RMIyYDaaFXqGHEtweAsm-14" target="RMIyYDaaFXqGHEtweAsm-15">
          <mxGeometry relative="1" as="geometry" />
        </mxCell>
        <mxCell id="RMIyYDaaFXqGHEtweAsm-24" style="edgeStyle=orthogonalEdgeStyle;rounded=0;orthogonalLoop=1;jettySize=auto;html=1;exitX=0.25;exitY=1;exitDx=0;exitDy=0;entryX=0.25;entryY=0;entryDx=0;entryDy=0;" edge="1" parent="1" source="RMIyYDaaFXqGHEtweAsm-14" target="RMIyYDaaFXqGHEtweAsm-19">
          <mxGeometry relative="1" as="geometry" />
        </mxCell>
        <mxCell id="RMIyYDaaFXqGHEtweAsm-14" value="人群创建修改" style="rounded=1;whiteSpace=wrap;html=1;" vertex="1" parent="1">
          <mxGeometry x="515" y="370" width="130" height="50" as="geometry" />
        </mxCell>
        <mxCell id="RMIyYDaaFXqGHEtweAsm-15" value="&lt;p style=&quot;margin: 0pt 0pt 0.0001pt; text-align: justify; font-family: Calibri; font-size: 10.5pt;&quot; class=&quot;MsoNormal&quot;&gt;&lt;span style=&quot;font-family: 宋体; font-size: 10.5pt;&quot;&gt;&lt;font face=&quot;宋体&quot;&gt;人群包关联&lt;/font&gt;&lt;font face=&quot;宋体&quot;&gt;hive表&lt;/font&gt;&lt;/span&gt;&lt;/p&gt;" style="strokeWidth=2;html=1;shape=mxgraph.flowchart.annotation_1;align=left;pointerEvents=1;" vertex="1" parent="1">
          <mxGeometry x="785" y="352.5" width="130" height="85" as="geometry" />
        </mxCell>
        <mxCell id="RMIyYDaaFXqGHEtweAsm-17" value="记录人群包信息" style="text;html=1;align=center;verticalAlign=middle;resizable=0;points=[];autosize=1;strokeColor=none;fillColor=none;" vertex="1" parent="1">
          <mxGeometry x="650" y="370" width="110" height="30" as="geometry" />
        </mxCell>
        <mxCell id="RMIyYDaaFXqGHEtweAsm-22" style="edgeStyle=orthogonalEdgeStyle;rounded=0;orthogonalLoop=1;jettySize=auto;html=1;exitX=1;exitY=0.5;exitDx=0;exitDy=0;entryX=0;entryY=0.5;entryDx=0;entryDy=0;entryPerimeter=0;" edge="1" parent="1" source="RMIyYDaaFXqGHEtweAsm-19" target="RMIyYDaaFXqGHEtweAsm-21">
          <mxGeometry relative="1" as="geometry" />
        </mxCell>
        <mxCell id="RMIyYDaaFXqGHEtweAsm-26" style="edgeStyle=orthogonalEdgeStyle;rounded=0;orthogonalLoop=1;jettySize=auto;html=1;exitX=0;exitY=0.5;exitDx=0;exitDy=0;" edge="1" parent="1" source="RMIyYDaaFXqGHEtweAsm-19" target="RMIyYDaaFXqGHEtweAsm-25">
          <mxGeometry relative="1" as="geometry" />
        </mxCell>
        <mxCell id="RMIyYDaaFXqGHEtweAsm-19" value="推送人群包至QA" style="rounded=1;whiteSpace=wrap;html=1;" vertex="1" parent="1">
          <mxGeometry x="515" y="470" width="130" height="60" as="geometry" />
        </mxCell>
        <mxCell id="RMIyYDaaFXqGHEtweAsm-21" value="&lt;p style=&quot;margin: 0pt 0pt 0.0001pt; text-align: justify; font-family: Calibri; font-size: 10.5pt;&quot; class=&quot;MsoNormal&quot;&gt;&lt;span style=&quot;font-family: 宋体; font-size: 10.5pt;&quot;&gt;&lt;font face=&quot;宋体&quot;&gt;人群包关联&lt;/font&gt;&lt;font face=&quot;宋体&quot;&gt;hive表手机号字段配置表&lt;/font&gt;&lt;/span&gt;&lt;/p&gt;" style="strokeWidth=2;html=1;shape=mxgraph.flowchart.annotation_1;align=left;pointerEvents=1;" vertex="1" parent="1">
          <mxGeometry x="800" y="462.5" width="225" height="75" as="geometry" />
        </mxCell>
        <mxCell id="RMIyYDaaFXqGHEtweAsm-23" value="读取配置信息" style="text;html=1;align=center;verticalAlign=middle;resizable=0;points=[];autosize=1;strokeColor=none;fillColor=none;" vertex="1" parent="1">
          <mxGeometry x="650" y="475" width="100" height="30" as="geometry" />
        </mxCell>
        <mxCell id="RMIyYDaaFXqGHEtweAsm-30" style="edgeStyle=orthogonalEdgeStyle;rounded=0;orthogonalLoop=1;jettySize=auto;html=1;exitX=0.25;exitY=0;exitDx=0;exitDy=0;entryX=0.3;entryY=1.021;entryDx=0;entryDy=0;entryPerimeter=0;" edge="1" parent="1" source="RMIyYDaaFXqGHEtweAsm-25" target="RMIyYDaaFXqGHEtweAsm-28">
          <mxGeometry relative="1" as="geometry" />
        </mxCell>
        <mxCell id="RMIyYDaaFXqGHEtweAsm-25" value="获取人群包文件推送" style="rounded=1;whiteSpace=wrap;html=1;" vertex="1" parent="1">
          <mxGeometry x="230" y="470" width="120" height="60" as="geometry" />
        </mxCell>
        <mxCell id="RMIyYDaaFXqGHEtweAsm-27" value="构建推送" style="text;html=1;align=center;verticalAlign=middle;resizable=0;points=[];autosize=1;strokeColor=none;fillColor=none;" vertex="1" parent="1">
          <mxGeometry x="365" y="475" width="70" height="30" as="geometry" />
        </mxCell>
        <mxCell id="RMIyYDaaFXqGHEtweAsm-28" value="推送历史记录表" style="strokeWidth=2;html=1;shape=mxgraph.flowchart.annotation_1;align=left;pointerEvents=1;" vertex="1" parent="1">
          <mxGeometry x="215" y="310" width="150" height="70" as="geometry" />
        </mxCell>
        <mxCell id="RMIyYDaaFXqGHEtweAsm-31" value="生成历史推送信息" style="text;html=1;align=center;verticalAlign=middle;resizable=0;points=[];autosize=1;strokeColor=none;fillColor=none;" vertex="1" parent="1">
          <mxGeometry x="260" y="407.5" width="120" height="30" as="geometry" />
        </mxCell>
      </root>
    </mxGraphModel>
  </diagram>
</mxfile>
